name Walk3.mot
datacolumns 19
datarows 17
range 2.41500000 2.49500000
endheader

                time	   L_ground_force_vx	   L_ground_force_vy	   L_ground_force_vz	   L_ground_force_px	   L_ground_force_py	   L_ground_force_pz	   R_ground_force_vx	   R_ground_force_vy	   R_ground_force_vz	   R_ground_force_px	   R_ground_force_py	   R_ground_force_pz	   L_ground_torque_x	   L_ground_torque_y	   L_ground_torque_z	   R_ground_torque_x	   R_ground_torque_y	   R_ground_torque_z	
          2.41500000	         17.85785571	        761.79684066	         55.50896287	         -0.25901672	          0.00000000	         -0.10003866	          0.00199711	          0.04312074	          0.01213990	          0.00006123	          0.00000000	          0.00003345	          0.00000000	          2.54466412	          0.00000000	          0.00000000	         -0.00132835	          0.00000000	
          2.42000000	         19.56175505	        763.60750736	         55.96178765	         -0.25765179	          0.00000000	         -0.10014486	          0.00140276	          0.07499391	          0.01735824	          0.00008806	          0.00000000	          0.00004814	          0.00000000	          2.54150136	          0.00000000	          0.00000000	         -0.00160523	          0.00000000	
          2.42500000	         21.35162400	        765.53461384	         56.42182869	         -0.25629480	          0.00000000	         -0.10025259	          0.00030294	          0.11544743	          0.02335485	          0.00011903	          0.00000000	          0.00006511	          0.00000000	          2.53544561	          0.00000000	          0.00000000	         -0.00183903	          0.00000000	
          2.43000000	         23.23524108	        767.58013118	         56.89997019	         -0.25494530	          0.00000000	         -0.10036530	         -0.00144946	          0.16429191	          0.02982554	          0.00015265	          0.00000000	          0.00008354	          0.00000000	          2.52834814	          0.00000000	          0.00000000	         -0.00197680	          0.00000000	
          2.43500000	         25.21936743	        769.74512899	         57.40633387	         -0.25360349	          0.00000000	         -0.10048602	         -0.00400335	          0.22019721	          0.03623748	          0.00018625	          0.00000000	          0.00010198	          0.00000000	          2.52165649	          0.00000000	          0.00000000	         -0.00194785	          0.00000000	
          2.44000000	         27.30980923	        772.03014554	         57.94866649	         -0.25227053	          0.00000000	         -0.10061546	         -0.00749212	          0.28021830	          0.04176702	          0.00021568	          0.00000000	          0.00011816	          0.00000000	          2.51596031	          0.00000000	          0.00000000	         -0.00166248	          0.00000000	
          2.44500000	         29.51086078	        774.43528037	         58.53125215	         -0.25094719	          0.00000000	         -0.10075297	         -0.01200844	          0.33925518	          0.04523863	          0.00023496	          0.00000000	          0.00012881	          0.00000000	          2.51113004	          0.00000000	          0.00000000	         -0.00101245	          0.00000000	
          2.45000000	         31.82481764	        776.95827897	         59.15501310	         -0.24963356	          0.00000000	         -0.10089767	         -0.01757013	          0.38947640	          0.04507299	          0.00023605	          0.00000000	          0.00012953	          0.00000000	          2.50689706	          0.00000000	          0.00000000	          0.00012606	          0.00000000	
          2.45500000	         34.25084330	        779.59225452	         59.81827929	         -0.24832902	          0.00000000	         -0.10104815	         -0.02407602	          0.41975698	          0.03925593	          0.00020865	          0.00000000	          0.00011468	          0.00000000	          2.50365163	          0.00000000	          0.00000000	          0.00188588	          0.00000000	
          2.46000000	         36.78397607	        782.32605408	         60.51760845	         -0.24703245	          0.00000000	         -0.10120282	         -0.03125193	          0.41520808	          0.02534357	          0.00014018	          0.00000000	          0.00007739	          0.00000000	          2.50241643	          0.00000000	          0.00000000	          0.00439754	          0.00000000	
          2.46500000	         39.41525302	        785.14814412	         61.24882303	         -0.24574347	          0.00000000	         -0.10136012	         -0.03858765	          0.35690781	          0.00052334	          0.00001612	          0.00000000	          0.00000969	          0.00000000	          2.50440132	          0.00000000	          0.00000000	          0.00777181	          0.00000000	
          2.47000000	         42.13187833	        788.04839344	         62.00783123	         -0.24446337	          0.00000000	         -0.10151919	         -0.04526788	          0.22197878	         -0.03824536	         -0.00017932	          0.00000000	         -0.00009708	          0.00000000	          2.51042720	          0.00000000	          0.00000000	          0.01207511	          0.00000000	
          2.47500000	         44.91943728	        791.01744830	         62.79112021	         -0.24319477	          0.00000000	         -0.10167843	         -0.05010210	         -0.01580302	         -0.09398376	         -0.00046197	          0.00000000	         -0.00025160	          0.00000000	          2.52057684	          0.00000000	          0.00000000	          0.01729638	          0.00000000	
          2.48000000	         47.76355543	        794.04608111	         63.59619281	         -0.24194140	          0.00000000	         -0.10183482	         -0.05146149	         -0.38464618	         -0.16931025	         -0.00084576	          0.00000000	         -0.00046153	          0.00000000	          2.53432555	          0.00000000	          0.00000000	          0.02330520	          0.00000000	
          2.48500000	         50.65047869	        797.12642175	         64.42095133	         -0.24070684	          0.00000000	         -0.10198451	         -0.04723465	         -0.91237504	         -0.26589214	         -0.00133992	          0.00000000	         -0.00073196	          0.00000000	          2.55083227	          0.00000000	          0.00000000	          0.02980104	          0.00000000	
          2.49000000	         53.56772407	        800.25185791	         65.26391314	         -0.23949327	          0.00000000	         -0.10212375	         -0.03481804	         -1.62278326	         -0.38370802	         -0.00194525	          0.00000000	         -0.00106340	          0.00000000	          2.56924370	          0.00000000	          0.00000000	          0.03625523	          0.00000000	
          2.49500000	         56.50416175	        803.41428929	         66.12483088	         -0.23830147	          0.00000000	         -0.10224981	         -0.01116178	         -2.53044468	         -0.52010574	         -0.00264930	          0.00000000	         -0.00144909	          0.00000000	          2.58918582	          0.00000000	          0.00000000	          0.04184846	          0.00000000	
